<svg width="480" height="480" viewBox="0 0 480 480" fill="none" xmlns="http://www.w3.org/2000/svg">
<rect width="480" height="480" fill="#373AF5"/>
<path d="M177.905 479.501L0.000507547 479.501L0.000507547 1.59653C0.000507547 1.59653 53.7629 59.8411 80.1553 139.99C106.548 220.138 80.1553 152.435 122.188 255.981C164.22 359.527 236.95 305.543 239.487 369.981C241.426 419.23 177.905 479.501 177.905 479.501Z" fill="#F3BBAC"/>
<path d="M298.638 0.000976562H478.72V477.905C478.72 477.905 424.299 419.661 397.584 339.512C370.868 259.364 397.584 327.067 355.037 223.521C312.49 119.975 238.869 173.959 236.301 109.521C234.339 60.2722 298.638 0.000976562 298.638 0.000976562Z" fill="#E5596D"/>
</svg>
