<svg width="55" height="55" viewBox="0 0 55 55" fill="none" xmlns="http://www.w3.org/2000/svg">
<path d="M37.9 28.8298V36.276H33.5412V29.2839C33.5412 27.5585 32.9056 26.378 31.3618 26.378C30.1814 26.378 29.4549 27.1953 29.1825 27.9218C29.0917 28.1942 29.0009 28.5574 29.0009 29.0115V36.276H24.6421C24.6421 36.276 24.7329 24.4711 24.6421 23.2906H29.0009V25.1067C29.5457 24.1987 30.6354 22.9274 32.9056 22.9274C35.7206 22.9274 37.9 24.8343 37.9 28.8298ZM20.1018 17.0249C18.6488 17.0249 17.65 18.0238 17.65 19.2951C17.65 20.5664 18.558 21.5653 20.0109 21.5653C21.5547 21.5653 22.4627 20.5664 22.4627 19.2951C22.5535 17.933 21.6455 17.0249 20.1018 17.0249ZM17.9224 36.276H22.2811V23.2906H17.9224V36.276Z" fill="white"/>
<rect x="0.774914" y="1.5002" width="52.65" height="52.65" stroke="white" stroke-width="1.35"/>
</svg>
