<svg width="480" height="480" viewBox="0 0 480 480" fill="none" xmlns="http://www.w3.org/2000/svg">
<g clip-path="url(#clip0_57_480)">
<rect width="480" height="480" fill="#BFF180"/>
<path d="M150.985 117.007C150.985 160.706 113.976 192.26 70.1279 192.26C48.0052 192.26 27.9767 190.647 15.1836 184.139C8.81955 180.902 4.30937 176.485 2.18349 170.499C0.0554831 164.506 0.269923 156.811 3.62346 146.927C5.82144 142.329 7.82938 137.883 9.74356 133.628C9.87576 133.334 10.0075 133.041 10.1388 132.749C11.9162 128.796 13.6164 125.016 15.3237 121.425C18.9922 113.71 22.6714 106.922 27.1551 101.291C31.63 95.6708 36.905 91.2058 43.7711 88.1389C50.644 85.069 59.1554 83.3802 70.1279 83.3802C77.217 83.3802 84.1516 83.1284 90.7679 82.8882C94.4742 82.7537 98.0806 82.6227 101.558 82.5417C111.281 82.3152 120.027 82.477 127.375 83.9971C134.709 85.5147 140.572 88.3699 144.617 93.4724C148.666 98.581 150.985 106.058 150.985 117.007Z" fill="#828A9E" stroke="#62667C" stroke-width="1.60112"/>
<ellipse cx="129.37" cy="137.018" rx="8.00562" ry="8.00562" fill="#62667C"/>
<circle cx="38.9063" cy="115.403" r="10.4073" fill="#62667C"/>
<circle cx="14.8892" cy="163.437" r="10.4073" fill="#62667C"/>
<circle cx="126.968" cy="94.5899" r="10.4073" fill="#62667C"/>
<ellipse cx="62.1227" cy="183.449" rx="4.80337" ry="4.80337" fill="#62667C"/>
<ellipse cx="89.3415" cy="141.823" rx="4.80337" ry="4.80337" fill="#62667C"/>
<path d="M110.334 433.785C110.334 455.896 107.357 468.797 99.1567 476.254C95.0558 479.983 89.5822 482.412 82.3426 483.906C75.0967 485.4 66.132 485.947 55.0954 485.947C44.0749 485.947 34.582 485.14 26.7546 483.321C18.9246 481.502 12.812 478.681 8.49791 474.69C-0.0439906 466.787 -1.82964 453.977 4.92318 434.089C9.34079 424.843 11.9703 416.613 14.1151 409.494C14.3627 408.672 14.6036 407.866 14.8397 407.076C16.6603 400.984 18.199 395.836 20.3751 391.581C22.8092 386.822 26.0206 383.23 31.2985 380.803C36.6149 378.358 44.0883 377.067 55.0954 377.067C77.1799 377.067 90.8813 380.405 99.1173 389C107.363 397.605 110.334 411.688 110.334 433.785Z" fill="#828A9E" stroke="#62667C" stroke-width="1.60112"/>
<ellipse cx="76.8543" cy="464.327" rx="8.00562" ry="8.00562" fill="#62667C"/>
<circle cx="34.1036" cy="410.012" r="10.4073" fill="#62667C"/>
<circle cx="23.2169" cy="453.922" r="10.4073" fill="#62667C"/>
<circle cx="88.8629" cy="393.079" r="10.4073" fill="#62667C"/>
<ellipse cx="84.5387" cy="436.431" rx="4.80337" ry="4.80337" fill="#62667C"/>
<path d="M480.194 52.7148C480.194 74.8255 477.216 87.7271 469.016 95.1839C464.915 98.9129 459.442 101.342 452.202 102.835C444.956 104.33 435.991 104.877 424.955 104.877C413.934 104.877 404.441 104.07 396.614 102.251C388.784 100.432 382.671 97.6106 378.357 93.6194C369.815 85.7169 368.03 72.907 374.783 53.0183C379.2 43.7731 381.83 35.5425 383.974 28.4235C384.222 27.6015 384.463 26.7956 384.699 26.0055C386.52 19.9139 388.058 14.7656 390.235 10.5109C392.669 5.75195 395.88 2.15961 401.158 -0.267574C406.474 -2.71244 413.948 -4.00315 424.955 -4.00315C447.039 -4.00315 460.741 -0.66575 468.977 7.92924C477.223 16.5345 480.194 30.6173 480.194 52.7148Z" fill="#828A9E" stroke="#62667C" stroke-width="1.60112"/>
<ellipse cx="446.714" cy="83.2595" rx="8.00562" ry="8.00562" fill="#62667C"/>
<circle cx="403.962" cy="28.9415" r="10.4073" fill="#62667C"/>
<circle cx="393.076" cy="72.8502" r="10.4073" fill="#62667C"/>
<circle cx="458.722" cy="12.0103" r="10.4073" fill="#62667C"/>
<ellipse cx="454.398" cy="55.3605" rx="4.80337" ry="4.80337" fill="#62667C"/>
<path d="M260.419 32.0494C260.419 40.0627 259.327 44.5209 256.537 47.0586C255.141 48.3281 253.253 49.1789 250.685 49.7085C248.111 50.2393 244.904 50.4375 240.916 50.4375C236.945 50.4375 233.548 50.1465 230.764 49.4995C227.977 48.852 225.856 47.8596 224.38 46.4947C221.516 43.8443 220.799 39.477 223.212 32.352C224.822 28.9777 225.781 25.9752 226.558 23.3957C226.648 23.0975 226.735 22.806 226.82 22.5212C227.483 20.3041 228.026 18.488 228.791 16.991C229.631 15.3493 230.718 14.1404 232.508 13.3173C234.336 12.4765 236.958 12.0105 240.916 12.0105C248.904 12.0105 253.671 13.2268 256.497 16.1764C259.334 19.1363 260.419 24.0493 260.419 32.0494Z" fill="#828A9E" stroke="#62667C" stroke-width="1.60112"/>
<ellipse cx="248.8" cy="43.1158" rx="2.9005" ry="2.9005" fill="#62667C"/>
<ellipse cx="233.311" cy="23.4342" rx="3.77065" ry="3.77065" fill="#62667C"/>
<ellipse cx="229.366" cy="39.3454" rx="3.77065" ry="3.77065" fill="#62667C"/>
<ellipse cx="253.151" cy="17.2999" rx="3.77065" ry="3.77065" fill="#62667C"/>
<circle cx="251.584" cy="33.0059" r="1.7403" fill="#62667C"/>
<path d="M344.259 379.468V379.337L344.217 379.212C338.834 363.263 337.617 351.411 339.414 342.603C341.201 333.84 345.984 328.022 352.794 324.124C359.641 320.205 368.559 318.218 378.585 317.221C388.604 316.225 399.643 316.224 410.705 316.224C432.529 316.224 447.285 325.806 456.627 340.835C466 355.915 469.947 376.529 469.947 398.562C469.947 420.492 462.246 442.733 449.072 459.478C435.903 476.218 417.305 487.424 395.495 487.424C373.906 487.424 361.095 471.711 353.653 450.165C346.215 428.631 344.259 401.549 344.259 379.468Z" fill="#828A9E" stroke="#62667C" stroke-width="1.60112"/>
<circle cx="413.107" cy="470.612" r="10.4073" fill="#62667C"/>
<circle cx="403.501" cy="347.326" r="10.4073" fill="#62667C"/>
<circle cx="449.933" cy="377.745" r="10.4073" fill="#62667C"/>
<ellipse cx="367.475" cy="383.352" rx="4.80337" ry="4.80337" fill="#62667C"/>
<ellipse cx="428.318" cy="423.379" rx="4.80337" ry="4.80337" fill="#62667C"/>
<ellipse cx="372.278" cy="428.183" rx="4.80337" ry="4.80337" fill="#62667C"/>
</g>
<defs>
<clipPath id="clip0_57_480">
<rect width="480" height="480" fill="white"/>
</clipPath>
</defs>
</svg>
