<svg width="55" height="55" viewBox="0 0 55 55" fill="none" xmlns="http://www.w3.org/2000/svg">
<path fill-rule="evenodd" clip-rule="evenodd" d="M27.764 11.626C23.7591 11.6281 19.8854 13.0465 16.8357 15.6278C13.7861 18.209 11.7592 21.7847 11.1177 25.7155C10.4761 29.6462 11.2616 33.6758 13.3338 37.0835C15.4059 40.4912 18.6296 43.055 22.4283 44.3163C23.2664 44.4719 23.5821 43.9525 23.5821 43.5108C23.5821 43.0692 23.5653 41.7887 23.5597 40.3887C18.8665 41.4026 17.8748 38.4082 17.8748 38.4082C17.1094 36.4639 16.0032 35.9528 16.0032 35.9528C14.4723 34.9139 16.1177 34.9334 16.1177 34.9334C17.8134 35.0528 18.7045 36.6639 18.7045 36.6639C20.2075 39.2277 22.6518 38.486 23.6128 38.0527C23.7636 36.9666 24.2022 36.2278 24.6855 35.8084C20.9366 35.3861 16.9977 33.9473 16.9977 27.5198C16.9744 25.8528 17.5965 24.2408 18.7353 23.0172C18.5621 22.595 17.9838 20.8895 18.9001 18.5729C18.9001 18.5729 20.3164 18.1229 23.5402 20.2923C26.3053 19.5404 29.2228 19.5404 31.9879 20.2923C35.2089 18.1229 36.6224 18.5729 36.6224 18.5729C37.5415 20.8839 36.9632 22.5894 36.79 23.0172C37.9323 24.241 38.5558 25.8559 38.5304 27.5253C38.5304 33.9668 34.5831 35.3861 30.8286 35.8C31.432 36.3222 31.9711 37.3416 31.9711 38.9082C31.9711 41.1526 31.9516 42.9581 31.9516 43.5108C31.9516 43.958 32.2561 44.4802 33.1109 44.3163C36.9101 43.0548 40.1341 40.4906 42.2062 37.0823C44.2783 33.674 45.0634 29.6439 44.4211 25.7127C43.7788 21.7816 41.751 18.2059 38.7003 15.6251C35.6496 13.0443 31.7751 11.6267 27.7696 11.626H27.764Z" fill="white"/>
<rect x="0.774853" y="1.5002" width="52.65" height="52.65" stroke="white" stroke-width="1.35"/>
</svg>
